<mxfile host="app.diagrams.net" modified="2021-10-26T15:09:39.072Z" agent="5.0 (Windows)" etag="4U0Lr4O7IgZv7Yv-T_98" version="15.5.9" type="github">
  <diagram id="8YqIMfpL829U5RsQXM55" name="Page-1">
    <mxGraphModel dx="1422" dy="763" grid="1" gridSize="10" guides="1" tooltips="1" connect="1" arrows="1" fold="1" page="1" pageScale="1" pageWidth="850" pageHeight="1100" math="0" shadow="0">
      <root>
        <mxCell id="0" />
        <mxCell id="1" parent="0" />
        <mxCell id="59RgPimpkNGIuj0bkft7-6" style="edgeStyle=orthogonalEdgeStyle;rounded=0;orthogonalLoop=1;jettySize=auto;html=1;" edge="1" parent="1" source="59RgPimpkNGIuj0bkft7-1" target="59RgPimpkNGIuj0bkft7-3">
          <mxGeometry relative="1" as="geometry" />
        </mxCell>
        <mxCell id="59RgPimpkNGIuj0bkft7-10" style="edgeStyle=orthogonalEdgeStyle;rounded=0;orthogonalLoop=1;jettySize=auto;html=1;" edge="1" parent="1" source="59RgPimpkNGIuj0bkft7-1" target="59RgPimpkNGIuj0bkft7-8">
          <mxGeometry relative="1" as="geometry" />
        </mxCell>
        <mxCell id="59RgPimpkNGIuj0bkft7-1" value="&lt;div&gt;Client&lt;/div&gt;" style="whiteSpace=wrap;html=1;aspect=fixed;" vertex="1" parent="1">
          <mxGeometry x="40" y="40" width="160" height="160" as="geometry" />
        </mxCell>
        <mxCell id="59RgPimpkNGIuj0bkft7-7" style="edgeStyle=orthogonalEdgeStyle;rounded=0;orthogonalLoop=1;jettySize=auto;html=1;" edge="1" parent="1" source="59RgPimpkNGIuj0bkft7-3" target="59RgPimpkNGIuj0bkft7-1">
          <mxGeometry relative="1" as="geometry" />
        </mxCell>
        <mxCell id="59RgPimpkNGIuj0bkft7-3" value="DNS" style="whiteSpace=wrap;html=1;aspect=fixed;align=center;" vertex="1" parent="1">
          <mxGeometry x="320" y="80" width="80" height="80" as="geometry" />
        </mxCell>
        <mxCell id="59RgPimpkNGIuj0bkft7-31" style="edgeStyle=orthogonalEdgeStyle;rounded=0;orthogonalLoop=1;jettySize=auto;html=1;exitX=0.5;exitY=0;exitDx=0;exitDy=0;entryX=0.5;entryY=1;entryDx=0;entryDy=0;" edge="1" parent="1" source="59RgPimpkNGIuj0bkft7-8" target="59RgPimpkNGIuj0bkft7-1">
          <mxGeometry relative="1" as="geometry" />
        </mxCell>
        <mxCell id="59RgPimpkNGIuj0bkft7-8" value="Server" style="whiteSpace=wrap;html=1;aspect=fixed;align=center;" vertex="1" parent="1">
          <mxGeometry x="80" y="280" width="80" height="80" as="geometry" />
        </mxCell>
        <mxCell id="59RgPimpkNGIuj0bkft7-13" value="" style="endArrow=classic;html=1;rounded=0;entryX=0;entryY=0.5;entryDx=0;entryDy=0;" edge="1" parent="1" target="59RgPimpkNGIuj0bkft7-14">
          <mxGeometry width="50" height="50" relative="1" as="geometry">
            <mxPoint x="140" y="240" as="sourcePoint" />
            <mxPoint x="230" y="240" as="targetPoint" />
          </mxGeometry>
        </mxCell>
        <mxCell id="59RgPimpkNGIuj0bkft7-29" style="edgeStyle=orthogonalEdgeStyle;rounded=0;orthogonalLoop=1;jettySize=auto;html=1;exitX=1;exitY=0.5;exitDx=0;exitDy=0;entryX=0;entryY=0.5;entryDx=0;entryDy=0;" edge="1" parent="1" source="59RgPimpkNGIuj0bkft7-14" target="59RgPimpkNGIuj0bkft7-23">
          <mxGeometry relative="1" as="geometry" />
        </mxCell>
        <mxCell id="59RgPimpkNGIuj0bkft7-14" value="Parse" style="whiteSpace=wrap;html=1;aspect=fixed;align=center;" vertex="1" parent="1">
          <mxGeometry x="240" y="200" width="80" height="80" as="geometry" />
        </mxCell>
        <mxCell id="59RgPimpkNGIuj0bkft7-15" value="" style="endArrow=classic;html=1;rounded=0;" edge="1" parent="1">
          <mxGeometry width="50" height="50" relative="1" as="geometry">
            <mxPoint x="200" y="260" as="sourcePoint" />
            <mxPoint x="200" y="400" as="targetPoint" />
          </mxGeometry>
        </mxCell>
        <mxCell id="59RgPimpkNGIuj0bkft7-22" value="Display" style="whiteSpace=wrap;html=1;aspect=fixed;align=center;" vertex="1" parent="1">
          <mxGeometry x="160" y="400" width="80" height="80" as="geometry" />
        </mxCell>
        <mxCell id="59RgPimpkNGIuj0bkft7-30" style="edgeStyle=orthogonalEdgeStyle;rounded=0;orthogonalLoop=1;jettySize=auto;html=1;exitX=0.5;exitY=1;exitDx=0;exitDy=0;entryX=0.75;entryY=0;entryDx=0;entryDy=0;" edge="1" parent="1" source="59RgPimpkNGIuj0bkft7-23" target="59RgPimpkNGIuj0bkft7-22">
          <mxGeometry relative="1" as="geometry" />
        </mxCell>
        <mxCell id="59RgPimpkNGIuj0bkft7-23" value="Cranberry Script runs and could modify content" style="rounded=0;whiteSpace=wrap;html=1;align=center;" vertex="1" parent="1">
          <mxGeometry x="360" y="200" width="120" height="80" as="geometry" />
        </mxCell>
        <mxCell id="59RgPimpkNGIuj0bkft7-26" value="" style="endArrow=none;html=1;rounded=0;" edge="1" parent="1" source="59RgPimpkNGIuj0bkft7-1">
          <mxGeometry width="50" height="50" relative="1" as="geometry">
            <mxPoint x="400" y="410" as="sourcePoint" />
            <mxPoint x="140" y="240" as="targetPoint" />
          </mxGeometry>
        </mxCell>
        <mxCell id="59RgPimpkNGIuj0bkft7-27" value="" style="endArrow=none;html=1;rounded=0;entryX=0;entryY=0.75;entryDx=0;entryDy=0;" edge="1" parent="1" target="59RgPimpkNGIuj0bkft7-14">
          <mxGeometry width="50" height="50" relative="1" as="geometry">
            <mxPoint x="200" y="260" as="sourcePoint" />
            <mxPoint x="450" y="360" as="targetPoint" />
          </mxGeometry>
        </mxCell>
      </root>
    </mxGraphModel>
  </diagram>
</mxfile>
